<svg width="1147" height="258" viewBox="0 0 1147 258" fill="none" xmlns="http://www.w3.org/2000/svg">
	<path d="M552.761 69.2756V77.6848L544.624 102.112H555.479C562.535 83.9099 575.562 66.5635 609.478 66.5635C649.097 66.5635 668.937 99.1266 668.937 137.933C668.937 176.739 649.121 209.041 609.478 209.041C575.555 209.041 562.529 191.671 555.479 173.487H544.624L552.761 197.914V257.889H509.343V69.2756H552.761ZM589.128 171.042C612.469 171.042 625.495 161.274 625.495 137.933C625.495 114.592 612.469 104.563 589.128 104.563C565.787 104.563 552.761 114.604 552.761 137.933C552.761 161.262 565.787 171.042 589.128 171.042Z" fill="white" />
	<path d="M664.839 89.8956C664.839 74.9701 673.254 66.84 688.18 67.1008L778.012 69.2729V107.266L708.238 105.64V206.321H664.814L664.839 89.8956Z" fill="white" />
	<path d="M843.171 66.5639C886.049 66.5639 920.226 89.8986 920.226 137.666C920.226 185.701 886.031 209.042 843.171 209.042C800.021 209.042 765.826 185.701 765.826 137.666C765.795 89.8986 799.991 66.5639 843.171 66.5639ZM843.171 171.042C863.527 171.042 876.82 160.728 876.82 137.672C876.79 114.853 863.497 104.539 843.171 104.539C822.543 104.539 809.249 114.853 809.249 137.648C809.195 160.734 822.543 171.042 843.171 171.042V171.042Z" fill="white" />
	<path d="M497.744 174.089C497.744 178.443 496.887 182.755 495.22 186.777C493.553 190.8 491.11 194.455 488.03 197.533C484.95 200.611 481.294 203.052 477.271 204.717C473.247 206.381 468.935 207.237 464.581 207.234C460.227 207.235 455.917 206.379 451.895 204.713C447.872 203.048 444.218 200.606 441.139 197.528C438.061 194.451 435.619 190.796 433.953 186.775C432.287 182.753 431.429 178.442 431.429 174.089C431.429 165.297 434.922 156.864 441.139 150.647C447.356 144.43 455.788 140.937 464.581 140.937C468.936 140.935 473.248 141.791 477.272 143.456C481.296 145.121 484.952 147.562 488.032 150.641C491.112 153.72 493.555 157.375 495.221 161.399C496.888 165.422 497.745 169.734 497.744 174.089V174.089Z" fill="white" />
	<path d="M398.681 188.878C409.055 180.797 417.447 170.453 423.217 158.635C428.986 146.818 431.981 133.839 431.972 120.688C431.98 107.538 428.985 94.5589 423.215 82.7416C417.446 70.9242 409.055 60.5801 398.681 52.4979C383.489 40.5899 364.737 34.1287 345.434 34.1504C322.487 34.1504 300.48 43.2644 284.252 59.4881C268.024 75.7118 258.903 97.7168 258.897 120.664C258.897 143.615 268.014 165.626 284.243 181.855C300.472 198.084 322.483 207.201 345.434 207.201C364.735 207.23 383.485 200.777 398.681 188.878Z" fill="white" />
	<path d="M172.863 114.797V7.7945C161.52 7.79048 150.365 10.6955 140.465 16.2318C130.565 21.7682 122.251 29.7509 116.316 39.4171C106.779 35.9115 96.6979 34.1204 86.5375 34.1265C63.5863 34.1265 41.5752 43.2438 25.3463 59.4727C9.11734 75.7017 0 97.7129 0 120.664C-5.64071e-08 143.614 9.11643 165.624 25.3441 181.853C41.5717 198.082 63.5813 207.2 86.5314 207.202C105.832 207.233 124.584 200.78 139.778 188.878C150.152 180.797 158.544 170.453 164.314 158.635C170.083 146.818 173.078 133.839 173.069 120.688C173.069 118.692 172.996 116.739 172.863 114.797Z" fill="white" />
	<path d="M215.406 74.4458C206.665 74.449 198.283 77.9232 192.103 84.1045C185.923 90.2858 182.45 98.6684 182.449 107.409V207.204C200.053 207.204 216.936 200.211 229.384 187.763C241.832 175.315 248.825 158.432 248.825 140.828V107.864C248.825 99.0012 245.304 90.5011 239.037 84.2339C232.769 77.9667 224.269 74.4458 215.406 74.4458V74.4458Z" fill="white" />
	<path d="M215.637 74.1711C233.966 74.1711 248.825 59.3123 248.825 40.9831C248.825 22.6538 233.966 7.79507 215.637 7.79507C197.308 7.79507 182.449 22.6538 182.449 40.9831C182.449 59.3123 197.308 74.1711 215.637 74.1711Z" fill="white" />
	<path d="M1144.81 78.1225C1143.14 72.9083 1140.03 68.2701 1135.85 64.7388C1131.67 61.2075 1126.57 58.9259 1121.15 58.155L1081.42 52.3608L1063.66 16.3818C1061.26 11.4532 1057.52 7.30176 1052.86 4.40412C1048.21 1.50648 1042.83 -0.0198972 1037.35 0.000195849C1031.87 -0.0184646 1026.49 1.50849 1021.84 4.40597C1017.18 7.30345 1013.44 11.4541 1011.03 16.3818L993.276 52.3608L953.602 58.155C948.18 58.9257 943.085 61.208 938.9 64.7405C934.715 68.273 931.61 72.9128 929.94 78.1285C928.227 83.334 928.015 88.9166 929.329 94.2368C930.642 99.557 933.428 104.4 937.366 108.21L966.094 136.217L959.311 175.757C958.365 181.155 958.958 186.71 961.023 191.787C963.087 196.863 966.54 201.256 970.985 204.461C975.406 207.7 980.651 209.627 986.117 210.022C991.583 210.417 997.05 209.263 1001.89 206.694L1037.33 188.025L1072.84 206.694C1077.06 208.922 1081.76 210.09 1086.53 210.098C1092.72 210.089 1098.75 208.116 1103.75 204.461C1108.19 201.258 1111.65 196.867 1113.71 191.791C1115.78 186.715 1116.37 181.16 1115.42 175.763L1108.64 136.211L1137.37 108.21C1141.32 104.401 1144.11 99.5581 1145.42 94.2364C1146.74 88.9146 1146.53 83.3297 1144.81 78.1225Z" fill="white" />
</svg>
